<svg xmlns="http://www.w3.org/2000/svg" height="64" viewBox="0 0 7877 7877" width="64" shape-rendering="geometricPrecision" image-rendering="optimizeQuality" fill-rule="evenodd"><defs><clipPath id="A"><path d="M3938 0c2176 0 3939 1763 3939 3938 0 2176-1763 3939-3939 3939C1763 7877 0 6114 0 3938 0 1763 1763 0 3938 0z"/></clipPath></defs><path d="M3938 0c2176 0 3939 1763 3939 3938 0 2176-1763 3939-3939 3939C1763 7877 0 6114 0 3938 0 1763 1763 0 3938 0z" fill="#aee3d1"/><g clip-path="url(#A)"><path d="M4405.44 2921.3l480.472 538.632-6123.04 5461.95-480.472-538.632z" fill="#c9897b"/><path d="M4405.44 2921.3l480.472 538.632L3673.514 4541.44l-480.472-538.632z" fill="#e4eff7"/><path d="M4546.22 3079.13l199.023 223.114-1212.397 1081.497-199.023-223.114z" fill="#f5f8fa"/><path d="M-1576.92 8541.16l199.023 223.114 4910.643-4380.452-199.023-223.114z" fill="#d3a094"/><g fill="#396182" fill-rule="nonzero"><path d="M4451 2880l481 539c23 26 20 65-5 87l-6123 5462c-26 23-64 20-87-5l-481-539c-22-25-20-64 5-87l6124-5462c25-22 64-20 86 5zm348 575l-398-447-6032 5380 399 447 6031-5380z"/><path d="M3628 4583l-481-539 92-82 481 539zm2029-2377c25-22 64-20 87 6 22 25 20 64-5 86l-547 488c-26 23-64 21-87-5-23-25-20-64 5-87l547-488zm-2215 263c-24-25-23-64 1-87 24-24 63-23 87 1l255 263c23 25 23 63-1 87-25 24-64 23-87-1l-255-263zm525-729c-7-33 13-66 46-73 33-8 66 12 74 45l169 714c8 33-13 66-46 74-33 7-66-13-74-46l-169-714zm799 351c10-33 45-51 77-41s51 45 40 77l-110 350c-10 32-44 50-77 40-32-10-50-44-40-77l110-349zm555 2300c22 26 18 65-8 87-26 21-65 17-87-9l-232-283c-22-26-18-65 8-86 27-22 65-18 87 8l232 283zm730-477c32 12 48 47 37 79-11 31-47 48-78 37l-690-249c-32-12-48-47-37-79 12-31 47-48 78-37l690 249zm-322-838c34-7 66 15 72 48 7 34-15 66-48 72l-360 70c-34 6-66-16-72-49-7-33 15-65 49-72l359-69z"/></g></g></svg>