<svg xmlns="http://www.w3.org/2000/svg" height="32" width="32"><circle cx="7.5" cy="5.5" r=".5"/><circle cx="5.5" cy="5.5" r=".5"/><circle cx="3.5" cy="5.5" r=".5"/><path d="M3.5 29h-1A1.5 1.5 0 0 1 1 27.5v-23A1.5 1.5 0 0 1 2.5 3h18a.5.5 0 1 1 0 1h-18a.5.5 0 0 0-.5.5v23a.5.5 0 0 0 .5.5h1a.5.5 0 1 1 0 1zm26 0h-21a.5.5 0 1 1 0-1h21a.5.5 0 0 0 .5-.5v-16a.5.5 0 1 1 1 0v16a1.5 1.5 0 0 1-1.5 1.5zm-1.96-17.282a.5.5 0 0 1-.354-.853l2.12-2.12c.975-.975.975-2.56 0-3.536l-1.414-1.414c-.975-.975-2.562-.975-3.536 0l-.706.706a.5.5 0 0 1-.707-.707l.707-.707c1.365-1.365 3.586-1.364 4.95 0L30.014 4.5c1.365 1.365 1.365 3.585 0 4.95l-2.12 2.12a.5.5 0 0 1-.354.147zM5.567 28.033a.5.5 0 0 1-.476-.653l2.7-8.366a.5.5 0 0 1 .629-.322.5.5 0 0 1 .322.629l-2.407 7.435 7.034-2.277-.24-1.687-2.104-.3a.5.5 0 0 1-.424-.424l-.354-2.475a.5.5 0 1 1 .99-.142l.3 2.104 2.104.3a.5.5 0 0 1 .424.424l.354 2.475a.5.5 0 0 1-.341.546L5.72 28.008a.47.47 0 0 1-.153.025z"/><path d="M13.58 22.85a.5.5 0 0 1-.354-.853L25.77 9.45a.5.5 0 0 1 .707.707L13.933 22.703a.5.5 0 0 1-.354.147zm-2.83-2.83a.5.5 0 0 1-.354-.853L21.53 8.036a.5.5 0 0 1 .707.707L11.104 19.875a.5.5 0 0 1-.354.146z"/><circle cx="23.296" cy="6.975" r=".5"/><path d="M9.5 26.54a.5.5 0 0 1-.354-.146L7.922 25.18a.5.5 0 0 1 .707-.707l1.214 1.214a.5.5 0 0 1-.353.853zm-1.225-6.873a.5.5 0 0 1-.354-.853L21.53 5.208a.5.5 0 0 1 .707.707L8.63 19.52a.5.5 0 0 1-.354.146zm5.658 5.658a.5.5 0 0 1-.354-.853L28.246 9.804 22.943 4.5a.5.5 0 0 1 .707-.707l5.657 5.657a.5.5 0 0 1 0 .707l-15.02 15.02c-.098.098-.225.147-.353.147zM17 8H2a.5.5 0 1 1 0-1h15a.5.5 0 1 1 0 1z"/></svg>