<svg xmlns="http://www.w3.org/2000/svg" height="512" width="512"><path d="M193.915 150.615l-35.924 14.742-38.937-131.353c-7.144-17.4-27.05-25.733-44.46-18.6L55.68 23.177c-17.4 7.144-25.733 27.05-18.6 44.46L103.6 187.67 67.817 202.36c-17.4 7.144-25.732 27.05-18.588 44.46l8.624 21.016L247 190.22l-8.624-21.017c-7.144-17.4-27.05-25.732-44.46-18.588zM118.65 416l23.52-35.434 38.478 9.994 23.52-35.434 40.58 9.13 22.47-35.004 40.58 9.13-56.487-137.656-189.147 77.616L118.65 416zM76.985 284.54l31.524-12.936 30.184 73.557 10.508-4.3-30.184-73.56 21.017-8.624 30.184 73.558 10.508-4.3-30.184-73.56 21.016-8.624 30.184 73.56 10.508-4.313-30.184-73.56 21.017-8.624 30.184 73.558 10.508-4.3-30.184-73.56 31.525-12.936 43.893 106.968-27.053-6.1-4.296 6.7-18.174 28.313-40.453-9.102-23.368 35.202-38.476-9.996-16.157 24.344L76.985 284.54zM459 62H149.4l5.93 20h303.663c5.512 0 9.998 4.487 9.998 10v340c0 5.513-4.486 10-10 10H130c-2.234 0-4.292-.746-5.96-2l-10.943 16.774A29.85 29.85 0 0 0 130 462h329c16.568 0 30-13.432 30-30V92c0-16.568-13.432-30-30-30z"/><defs ><path  d="M61.772-71.653c.018.072.007.127-.026.2-.053.1-.112.063-.165.128a.64.64 0 0 0-.079.362c-.17.058-.01.227-.015.35-.002.05-.04.105-.045.16-.01.12.017.266.068.37.097.198.268.413.435.544.2.148.365.572.608.63.177.042.384-.104.543-.143.18-.043.397.01.57-.053.222-.08.127-.337.288-.45.104-.074.287-.01.406-.05.2-.07.34-.263.376-.46.016-.082.01-.145.04-.22.04-.103.11-.16.1-.293-.01-.062-.052-.12-.064-.187-.022-.114.002-.224 0-.337-.003-.2.017-.38-.078-.55-.38-.688-1.236-.93-1.975-.79-.18.034-.287.126-.442.207-.17.088-.14.166-.318.224-.08.026-.216.124-.215.224.001.115.005.05.012.17-.02.01-.02-.005-.03-.025"/><path  d="M.44-71.653c.018.072.008.127-.026.2-.052.1-.113.063-.165.128a.63.63 0 0 0-.079.362c-.17.058-.01.227-.015.35-.002.05-.04.105-.045.16-.01.12.017.266.068.37.097.198.268.413.435.544.2.148.365.572.608.63.177.042.384-.104.543-.143.18-.043.397.01.57-.053.222-.08.127-.337.288-.45.104-.074.287-.01.406-.05.2-.07.34-.263.376-.46.016-.082.01-.145.04-.22.038-.103.11-.16.1-.293-.01-.062-.05-.12-.064-.187-.02-.114.002-.224 0-.337-.003-.2.017-.38-.078-.55-.38-.688-1.236-.93-1.975-.79-.18.034-.287.126-.442.207-.17.088-.14.166-.318.224-.08.026-.215.124-.215.224.002.115.005.05.012.17-.02.01-.02-.005-.03-.025"/><path  d="M.495-56.348c.018.072.007.127-.026.2-.053.1-.112.063-.165.128a.64.64 0 0 0-.079.362c-.17.058-.01.227-.015.35-.002.05-.04.105-.045.16-.01.12.017.266.068.37.097.198.268.413.435.544.2.148.365.572.608.63.177.042.384-.104.543-.143.18-.043.397.01.57-.053.222-.08.127-.337.288-.45.104-.074.287-.01.406-.05.2-.07.34-.263.376-.46.016-.082.01-.145.04-.22.04-.103.11-.16.1-.293-.01-.062-.052-.12-.064-.187-.022-.114.002-.224 0-.337-.003-.2.017-.38-.078-.55-.38-.688-1.236-.93-1.975-.79-.18.034-.287.126-.442.207-.17.088-.14.166-.318.224-.08.026-.216.124-.215.224l.013.17c-.02.01-.02-.005-.03-.025"/><path  d="M8.156-41.042c.018.072.007.127-.026.2-.053.1-.112.063-.165.128a.64.64 0 0 0-.079.362c-.17.058-.01.227-.015.35-.002.05-.04.105-.045.16-.01.12.017.266.068.37.097.198.268.413.435.544.2.148.365.572.608.63.177.042.384-.104.543-.143.18-.043.397.01.57-.053.222-.08.127-.337.288-.45.104-.074.287-.01.406-.05.2-.07.34-.263.376-.46.016-.082.01-.145.04-.22.04-.103.11-.16.1-.293-.01-.062-.052-.12-.064-.187-.022-.114.002-.224 0-.337-.003-.2.017-.38-.078-.55-.38-.688-1.236-.93-1.975-.79-.18.034-.287.126-.442.207-.17.088-.14.166-.318.224-.08.026-.216.124-.215.224.001.115.005.05.012.17-.02.012-.02-.004-.03-.024"/></defs></svg>