<svg xmlns="http://www.w3.org/2000/svg" width="14.091" height="23.157"><defs><clipPath id="A"><path transform="translate(588 361)" fill="#fff" d="M0 0h6v11H0z"/></clipPath></defs><g fill="none" stroke="#0a94e3"><path d="M9.74 4.703l-.662.525"/><path d="M14.04 11.157s-5.83.6-4.8-6.015a7.53 7.53 0 0 1 .062-.327 6.48 6.48 0 0 0 .369-1.151c-.025-.678.034-1.356.174-2.02.384-.956.63-.89 1.28-1.042.712-.136 1.445.092 1.955.608h0"/></g><g clip-path="url(#A)" transform="translate(-581.63 -348.843)"><path d="M591.564 370.764c.642-.62 1.157-1.356 1.516-2.172a3.2 3.2 0 0 0-.09-3.136 7.23 7.23 0 0 0-2.313-1.683c-.843-.543-1.733-1.007-2.66-1.388-9.214-3.624-3.932 1.388-3.932 1.388" fill="none" stroke="#0a94e3"/></g><g fill="none" stroke="#0a94e3"><path d="M.044 18.74s8.035.72 6.775-4.275-.213-5.673-.213-5.673l2.84-4.27"/><path d="M1.363 8.272s0-.025.043-.286h0V7.97c.02-.132.052-.262.092-.39.376-.63.87-1.18 1.454-1.624.982-.864 2.255-1.324 3.563-1.287.934-.128 1.88-.128 2.815 0a5.72 5.72 0 0 0 1.909 0c.768.012 1.49-.372 1.906-1.017s.472-1.46.146-2.156c-.5-.98-2.4-.835-2.4-.835"/></g></svg>