<svg xmlns="http://www.w3.org/2000/svg" width="14" height="14" fill="#0a94e3"><path d="M11.013 0H2.987A2.99 2.99 0 0 0 0 2.987v8.027A2.99 2.99 0 0 0 2.987 14h8.027A2.99 2.99 0 0 0 14 11.013V2.987A2.99 2.99 0 0 0 11.013 0zM4.356 7.887l1.5-1.5 1.8 1.8L6.16 9.7l1.8 1.8 1.5-1.5 1.8 1.8-1.45 1.462h-.187L7.9 11.5l-1.7 1.7h-.25l-1.68-1.68-1.627 1.65a2.76 2.76 0 0 1-.513-.14L.95 11.87a2.05 2.05 0 0 1-.14-.467l1.68-1.65-1.7-1.7v-.187L2.52 6.13.778 4.387v-.125L2.256 2.8l1.8 1.8L2.55 6.113zm8.867 3.127a2.2 2.2 0 0 1-.389 1.26L1.742 1.167c.365-.253.8-.4 1.244-.4h8.027a2.22 2.22 0 0 1 2.209 2.209zM2.52 9.716l1.793-1.793 1.793 1.793-1.793 1.793z"/></svg>