<svg xmlns="http://www.w3.org/2000/svg" width="14" height="14"><path d="M5.353 12.765H2.47A2.47 2.47 0 0 1 0 10.293V2.47A2.47 2.47 0 0 1 2.471 0h7.822a2.47 2.47 0 0 1 2.471 2.471v2.882h.824a.41.41 0 0 1 .412.412v2.47a.41.41 0 0 1-.412.412h-.842a4.53 4.53 0 0 1-4.1 4.1v.842c0 .228-.184.412-.412.412h-2.47c-.228 0-.412-.184-.412-.412v-.824zm0-1.647a.41.41 0 0 1 .412-.412h2.47a.41.41 0 0 1 .412.412v.8c1.72-.193 3.078-1.55 3.27-3.27h-.8a.41.41 0 0 1-.412-.412v-2.47a.41.41 0 0 1 .412-.412h.824V2.47A1.65 1.65 0 0 0 10.295.822H2.473A1.65 1.65 0 0 0 .825 2.47v7.822a1.65 1.65 0 0 0 1.648 1.648h2.882zm6.176-3.294h1.647V6.177H11.53zm-5.353 5.353h1.647V11.53H6.176z" fill="#0a94e3"/></svg>