<svg xmlns="http://www.w3.org/2000/svg" width="14.999" height="15.016"><path d="M13.44 12.078c.38-.492.7-1.03.948-1.6v-.02a7.5 7.5 0 0 0 0-5.931v-.02c-.25-.57-.567-1.108-.948-1.6h0C11.474.37 8.113-.635 5.076.405S0 4.298 0 7.507s2.04 6.063 5.076 7.102 6.397.034 8.364-2.502zM7.796 4.926h1.32v1.32h-1.32zm0 3.815h1.32v1.32h-1.32zm0-.587v-1.32h1.32v1.32zm1.908-1.328h1.32v1.32h-1.32zm1.908 0h1.32v1.32H11.61zm1.908 0h.88l.032.66c.006.22-.005.44-.032.66h-.88zm.408-1.908c.17.426.3.87.38 1.32h-.8V4.926zm-.408-.587v-.26q.073.13.14.26zm-.588 1.907h-1.32V4.926h1.32zm-1.908 0h-1.32V4.926h1.32zM9.703 4.33V.93a6.89 6.89 0 0 1 1.321.6v2.8zm-.587 0h-1.32V.576a6.9 6.9 0 0 1 1.321.185zm-1.32 6.3h1.32v3.574a6.9 6.9 0 0 1-1.321.185zm1.908 0h1.32v2.8a6.89 6.89 0 0 1-1.321.6zm0-.587V8.738h1.32v1.32zm1.908-1.32h1.32v1.324h-1.32zm1.908 0h.8c-.082.452-.2.895-.38 1.32h-.408zm.14 1.908q-.067.132-.14.26v-.26zm-.727-7.44v1.13h-1.32V1.915a6.98 6.98 0 0 1 1.321 1.292zM.582 7.49A6.93 6.93 0 0 1 7.209.574v13.832A6.93 6.93 0 0 1 .582 7.491zm11.03 5.57v-2.42h1.32v1.13a6.98 6.98 0 0 1-1.321 1.291z" fill="#0a94e3"/></svg>