<svg xmlns="http://www.w3.org/2000/svg" width="14.001" height="16.123" viewBox="0 0 14.001 16.123"><g transform="translate(0.001 0)"><path d="M13.73,3.65l-.024.013L7,7.03.268,3.65,7,.268Z" fill="rgba(10,148,227,0.4)"/><path d="M13.73,3.7v8.75L7,15.842V7.03l6.707-3.367Z" fill="#fff"/><path d="M7,7.03v8.813L.27,12.463V3.7l.024-.048Z" fill="#fff"/><path d="M7,7.3a.251.251,0,0,1-.12-.03L.138,3.884a.269.269,0,0,1,.01-.475L6.88.028a.267.267,0,0,1,.24,0l6.73,3.38a.27.27,0,0,1,.01.475l-.024.013h-.01L7.12,7.27A.251.251,0,0,1,7,7.3ZM.87,3.65,7,6.73l6.134-3.08L7,.57Z" fill="#0a94e3"/><path d="M7,16.1a.251.251,0,0,1-.12-.03L.15,12.7A.27.27,0,0,1,0,12.46V3.7a.269.269,0,1,1,.537,0v8.6L7,15.542,13.463,12.3V3.7A.269.269,0,1,1,14,3.7v8.75a.27.27,0,0,1-.148.24l-6.73,3.38A.26.26,0,0,1,7,16.1Z" fill="#0a94e3"/><path d="M7,16.1a.315.315,0,0,1-.2-.078.244.244,0,0,1-.08-.2V7.03a.275.275,0,0,1,.548,0v8.812a.315.315,0,0,1-.078.2.244.244,0,0,1-.2.08Z" fill="#0a94e3"/></g></svg>