<svg xmlns="http://www.w3.org/2000/svg" width="14" height="14"><path d="M1.75 3.443A1.74 1.74 0 0 0 3.5 1.721 1.74 1.74 0 0 0 1.75 0 1.74 1.74 0 0 0 0 1.721a1.74 1.74 0 0 0 1.75 1.722zM1.75 14a1.74 1.74 0 0 0 1.75-1.721 1.71 1.71 0 0 0-1.75-1.721A1.74 1.74 0 0 0 0 12.279 1.74 1.74 0 0 0 1.75 14zm0-1.148a.59.59 0 0 1-.583-.574.59.59 0 0 1 .583-.578.59.59 0 0 1 .583.574.59.59 0 0 1-.583.578zm0-4.13A1.74 1.74 0 0 0 3.5 7a1.74 1.74 0 0 0-1.75-1.721A1.74 1.74 0 0 0 0 7a1.74 1.74 0 0 0 1.75 1.721zm0-1.148a.59.59 0 0 1-.583-.574.59.59 0 0 1 .583-.574.59.59 0 0 1 .583.574.59.59 0 0 1-.583.575zm3.5 5.28h8.167c.583 0 .583 0 .583-.574s0-.574-.583-.574H5.25c-.583 0-.583 0-.583.574s0 .574.583.574zM1.75 2.3a.59.59 0 0 1-.583-.574.59.59 0 0 1 .583-.574.59.59 0 0 1 .583.574.59.59 0 0 1-.583.574zm3.5 5.28h8.167c.583 0 .583 0 .583-.574s0-.574-.583-.574H5.25c-.583 0-.583 0-.583.574s0 .57.583.57zm0-5.28h8.167C14 2.3 14 2.3 14 1.726s0-.574-.583-.574H5.25c-.583 0-.583 0-.583.574s0 .574.583.574zm0 0" fill="#0a94e3"/></svg>