<svg xmlns="http://www.w3.org/2000/svg" width="14.137" height="14.272"><path d="M1 1.135v12.003h12.003V1.135H1m-1-1h14.003v14.003H0V.135z" fill="#0a94e3"/><path d="M2.407 7.355h3.5" fill="none" stroke="#0a94e3"/><g fill="#0a94e3"><path d="M6.02 8.226V6.484l1.16.87-1.16.87z"/><path d="M8.015 7.355L5.52 9.226V5.484l2.495 1.87z"/></g><path d="M8.97 7.792l4.813-4.813m-4.813 7l4.813-4.813m-4.813 7l4.813-4.813m-1.75 6.565l1.75-1.75m-4.376 1.75l4.376-4.376M8.97 5.604L13.783.8M8.97 3.417L12.033.354M8.97 1.667L10.283.354" fill="none" stroke="#0a94e3"/></svg>