<svg xmlns="http://www.w3.org/2000/svg" width="16.001" height="16.188"><path d="M7.247 1.153h-1.6V0h1.6zM4.015 4.1c-.204.205-.204.535 0 .74l6.31 6.33-1.077 1.076h2.893v-2.9l-1.077 1.08-6.3-6.326a.52.52 0 0 0-.738 0zm.68-4.1h-1.6v1.153h1.6zm4.5 1.666v.616h1.152v-.616c.001-.44-.174-.864-.485-1.177S9.128.001 8.687 0h-.48v1.153h.48a.51.51 0 0 1 .512.513zm0 3.18h1.152v-1.6h-1.15zm-9.2-3.18v.616h1.152v-.616a.51.51 0 0 1 .511-.513h.48V0h-.48C.74.003-.002.748 0 1.666zm3.1 8.715h1.6V9.227h-1.6zm11.242-4.574h-6.53l1.15 1.154h5.383c.283.001.51.23.51.513v7.05c0 .283-.228.512-.51.513H7.314c-.283-.001-.51-.23-.51-.513V8.987l-1.15-1.154v6.688c-.001.92.742 1.664 1.66 1.666h7.027c.92-.002 1.662-.747 1.66-1.666v-7.05c.001-.44-.174-.865-.485-1.177s-.734-.488-1.176-.49zm-13.19 0h-1.15v1.6h1.15zm0 2.91V8.37h-1.15v.345c-.001.44.174.865.485 1.177s.734.488 1.176.49h.48V9.227h-.48a.51.51 0 0 1-.51-.512zm0-5.472h-1.15v1.6h1.15z" fill="#0a94e3"/></svg>